<?xml version="1.0" encoding="UTF-8"?>
<svg width="1200pt" height="1200pt" version="1.1" viewBox="0 0 1200 1200" xmlns="http://www.w3.org/2000/svg">
 <path d="m1149.4 708.68c22.402 0 43.246-18.168 46.297-40.367 0 0 4.2852-31.199 4.2852-68.305s-4.2852-68.305-4.2852-68.305c-3.0586-22.211-23.891-40.367-46.297-40.367h-115.78c-22.414 0-45.695-14.293-51.719-31.754-6.0234-17.461-14.316-73.477 1.5352-89.316l81.84-81.84c15.84-15.852 17.062-42.898 2.7109-60.121l-96.285-96.309c-17.219-14.363-44.258-13.141-60.121 2.7109l-81.84 81.84c-15.84 15.852-42.254 22.234-58.656 14.195-16.414-8.0391-62.41-41.953-62.41-64.367v-115.77c0-22.414-18.168-43.246-40.367-46.309 0 0-31.199-4.2969-68.305-4.2969s-68.305 4.2969-68.305 4.2969c-22.211 3.0469-40.379 23.891-40.379 46.309v115.78c0 22.414-14.281 45.684-31.754 51.719-17.473 6.0234-73.477 14.316-89.328-1.5352l-81.84-81.84c-15.852-15.855-42.898-17.078-60.105-2.7266l-96.301 96.301c-14.363 17.219-13.141 44.27 2.7109 60.121l81.828 81.84c15.852 15.852 22.246 42.254 14.195 58.656-8.0508 16.402-41.953 62.41-64.367 62.41h-115.76c-22.414 0-43.246 18.168-46.309 40.367 0 0-4.2969 31.199-4.2969 68.305 0 37.117 4.2969 68.305 4.2969 68.305 3.0469 22.211 23.891 40.367 46.309 40.367h115.78c22.414 0 45.684 14.281 51.707 31.754 6.0234 17.461 14.316 73.465-1.5352 89.316l-81.828 81.828c-15.852 15.852-17.074 42.898-2.7109 60.121l96.285 96.309c17.219 14.352 44.258 13.141 60.109-2.7109l81.84-81.84c15.852-15.84 42.254-22.234 58.668-14.195 16.414 8.0391 62.41 41.953 62.41 64.367v115.78c0 22.402 18.168 43.246 40.379 46.297 0 0 31.188 4.2852 68.305 4.2852 37.117 0 68.305-4.2852 68.305-4.2852 22.211-3.0586 40.367-23.891 40.367-46.297v-115.78c0-22.414 14.281-45.695 31.754-51.719 17.473-6.0234 73.477-14.305 89.328 1.5352l81.828 81.84c15.852 15.84 42.898 17.062 60.121 2.7109l96.285-96.277c14.352-17.219 13.141-44.258-2.7227-60.121l-81.828-81.828c-15.852-15.852-22.246-42.254-14.195-58.668 8.0391-16.414 41.953-62.41 64.367-62.41zm-549.41 110.94c-121.3 0-219.62-98.316-219.62-219.62 0-121.29 98.328-219.62 219.62-219.62s219.62 98.328 219.62 219.62-98.328 219.62-219.62 219.62z"/>
</svg>
